<?xml version="1.0" encoding="utf-8"?>
<!-- Generator: Adobe Illustrator 15.0.0, SVG Export Plug-In . SVG Version: 6.00 Build 0)  -->
<!DOCTYPE svg PUBLIC "-//W3C//DTD SVG 1.1//EN" "http://www.w3.org/Graphics/SVG/1.1/DTD/svg11.dtd">
<svg version="1.1" id="Calque_1" xmlns="http://www.w3.org/2000/svg" xmlns:xlink="http://www.w3.org/1999/xlink" x="0px" y="0px"
	 width="595.281px" height="841.891px" viewBox="0 0 595.281 841.891" enable-background="new 0 0 595.281 841.891"
	 xml:space="preserve">
<path fill="#008B8B" d="M372.05,513.958c0,10.278-8.324,18.603-18.604,18.603H241.833c-10.278,0-18.603-8.324-18.603-18.603V458.15
	H0v167.423c0,29.764,26.043,55.808,55.808,55.808h483.665c29.764,0,55.809-26.044,55.809-55.808V458.15H372.05V513.958z
	 M539.472,272.125H446.46v-55.808c0-29.764-26.043-55.808-55.809-55.808H204.627c-29.764,0-55.807,26.044-55.807,55.808v55.808
	H55.808C26.043,272.125,0,298.169,0,327.932v93.013h595.281v-93.013C595.281,298.169,569.236,272.125,539.472,272.125z
	 M372.05,272.125H223.23V234.92h148.82V272.125z"/>
</svg>
