<?xml version="1.0" encoding="utf-8"?>
<!-- Generator: Adobe Illustrator 15.0.0, SVG Export Plug-In . SVG Version: 6.00 Build 0)  -->
<!DOCTYPE svg PUBLIC "-//W3C//DTD SVG 1.1//EN" "http://www.w3.org/Graphics/SVG/1.1/DTD/svg11.dtd">
<svg version="1.1" id="Calque_1" xmlns="http://www.w3.org/2000/svg" xmlns:xlink="http://www.w3.org/1999/xlink" x="0px" y="0px"
	 width="595.281px" height="841.891px" viewBox="0 0 595.281 841.891" enable-background="new 0 0 595.281 841.891"
	 xml:space="preserve">
<path fill="#008B8B" d="M15.945,335.905h563.391c8.77,0,15.945,7.175,15.945,15.945v345.476c0,35.211-28.568,63.779-63.781,63.779
	H63.78C28.568,761.105,0,732.537,0,697.326V351.85C0,343.08,7.175,335.905,15.945,335.905z M595.281,277.44v-47.835
	c0-35.212-28.568-63.78-63.781-63.78H467.72V96.73c0-8.771-7.176-15.945-15.945-15.945h-53.15c-8.77,0-15.943,7.175-15.943,15.945
	v69.095H212.6V96.73c0-8.771-7.175-15.945-15.945-15.945h-53.15c-8.77,0-15.945,7.175-15.945,15.945v69.095H63.78
	c-35.212,0-63.78,28.568-63.78,63.78v47.835c0,8.77,7.175,15.945,15.945,15.945h563.391
	C588.105,293.385,595.281,286.21,595.281,277.44z"/>
</svg>
