<?xml version="1.0" encoding="utf-8"?>
<!-- Generator: Adobe Illustrator 15.0.0, SVG Export Plug-In . SVG Version: 6.00 Build 0)  -->
<!DOCTYPE svg PUBLIC "-//W3C//DTD SVG 1.1//EN" "http://www.w3.org/Graphics/SVG/1.1/DTD/svg11.dtd">
<svg version="1.1" id="Calque_1" xmlns="http://www.w3.org/2000/svg" xmlns:xlink="http://www.w3.org/1999/xlink" x="0px" y="0px"
	 width="595.281px" height="841.891px" viewBox="0 0 595.281 841.891" enable-background="new 0 0 595.281 841.891"
	 xml:space="preserve">
<path fill="#008B8B" d="M533.22,420.852l53.465-52.325c15.938-15.088,8.506-41.901-12.398-46.9l-72.842-18.591l20.535-72.103
	c5.803-20.739-13.754-40.302-34.486-34.497l-72.078,20.54l-18.584-72.864c-4.918-20.578-32.031-28.104-46.883-12.403l-52.309,53.88
	l-52.307-53.879c-14.685-15.522-41.911-8.41-46.884,12.403l-18.584,72.865l-72.079-20.541
	c-20.738-5.807-40.288,13.763-34.486,34.497l20.534,72.103l-72.84,18.591c-20.914,5-28.331,31.818-12.4,46.899l53.465,52.325
	L8.594,473.177c-15.938,15.088-8.506,41.901,12.399,46.9l72.84,18.591L73.3,610.77c-5.803,20.739,13.753,40.301,34.485,34.497
	l72.078-20.541l18.584,72.865c5.161,21.596,32.201,27.925,46.884,12.403l52.309-53.483l52.307,53.483
	c14.533,15.682,41.84,8.703,46.885-12.403l18.584-72.865l72.078,20.541c20.736,5.806,40.287-13.763,34.484-34.497l-20.533-72.103
	l72.84-18.591c20.914-5.002,28.33-31.818,12.398-46.9L533.22,420.852L533.22,420.852z"/>
</svg>
