<?xml version="1.0" encoding="utf-8"?>
<!-- Generator: Adobe Illustrator 15.0.0, SVG Export Plug-In . SVG Version: 6.00 Build 0)  -->
<!DOCTYPE svg PUBLIC "-//W3C//DTD SVG 1.1//EN" "http://www.w3.org/Graphics/SVG/1.1/DTD/svg11.dtd">
<svg version="1.1" id="Calque_1" xmlns="http://www.w3.org/2000/svg" xmlns:xlink="http://www.w3.org/1999/xlink" x="0px" y="0px"
	 width="595.281px" height="841.891px" viewBox="0 0 595.281 841.891" enable-background="new 0 0 595.281 841.891"
	 xml:space="preserve">
<path fill="#008B8B" d="M584.003,345.139c4.533-3.604,11.277-0.232,11.277,5.465v237.764c0,30.811-24.998,55.808-55.809,55.808
	H55.808C24.997,644.176,0,619.178,0,588.368V350.72c0-5.813,6.627-9.068,11.278-5.464c26.043,20.229,60.574,45.925,179.166,132.077
	c24.532,17.905,65.922,55.575,107.197,55.343c41.508,0.349,83.711-38.135,107.313-55.343
	C523.544,391.181,557.958,365.37,584.003,345.139z M297.64,495.355c26.975,0.465,65.807-33.949,85.34-48.134
	c154.283-111.964,166.027-121.73,201.604-149.634c6.744-5.232,10.697-13.371,10.697-21.975v-22.091
	c0-30.811-24.998-55.808-55.809-55.808H55.808C24.997,197.715,0,222.712,0,253.522v22.091c0,8.604,3.953,16.626,10.696,21.975
	c35.578,27.787,47.32,37.67,201.605,149.634C231.834,461.406,270.667,495.82,297.64,495.355L297.64,495.355z"/>
</svg>
