<?xml version="1.0" encoding="utf-8"?>
<!-- Generator: Adobe Illustrator 15.0.0, SVG Export Plug-In . SVG Version: 6.00 Build 0)  -->
<!DOCTYPE svg PUBLIC "-//W3C//DTD SVG 1.1//EN" "http://www.w3.org/Graphics/SVG/1.1/DTD/svg11.dtd">
<svg version="1.1" id="Calque_1" xmlns="http://www.w3.org/2000/svg" xmlns:xlink="http://www.w3.org/1999/xlink" x="0px" y="0px"
	 width="595.281px" height="841.891px" viewBox="0 0 595.281 841.891" enable-background="new 0 0 595.281 841.891"
	 xml:space="preserve">
<path fill="#008B8B" d="M289.755,309.598L99.213,466.532v169.376c0,9.132,7.403,16.535,16.536,16.535l115.811-0.3
	c9.1-0.045,16.453-7.436,16.453-16.535v-98.914c0-9.132,7.403-16.535,16.536-16.535h66.143c9.133,0,16.535,7.403,16.535,16.535
	v98.842c-0.029,9.132,7.352,16.559,16.484,16.587c0.018,0,0.033,0,0.051,0l115.77,0.32c9.133,0,16.535-7.403,16.535-16.535v-169.49
	l-190.5-156.819C300.953,305.88,294.369,305.88,289.755,309.598L289.755,309.598z M590.734,416.263l-86.398-71.217V201.9
	c0-6.849-5.553-12.401-12.402-12.401h-57.875c-6.85,0-12.4,5.553-12.4,12.401v75.041l-92.527-76.126
	c-18.313-15.069-44.73-15.069-63.042,0L4.485,416.263c-5.279,4.363-6.022,12.181-1.658,17.46c0.001,0.002,0.003,0.004,0.004,0.006
	l26.354,32.038c4.351,5.29,12.166,6.052,17.456,1.701c0.007-0.006,0.014-0.012,0.02-0.017l243.094-200.226
	c4.614-3.72,11.198-3.72,15.811,0l243.105,200.226c5.275,4.366,13.094,3.629,17.461-1.648c0-0.002,0.002-0.004,0.004-0.006
	l26.354-32.037c4.35-5.291,3.586-13.106-1.707-17.456C590.767,416.291,590.75,416.277,590.734,416.263L590.734,416.263z"/>
</svg>
