<?xml version="1.0" encoding="utf-8"?>
<!-- Generator: Adobe Illustrator 15.0.0, SVG Export Plug-In . SVG Version: 6.00 Build 0)  -->
<!DOCTYPE svg PUBLIC "-//W3C//DTD SVG 1.1//EN" "http://www.w3.org/Graphics/SVG/1.1/DTD/svg11.dtd">
<svg version="1.1" id="Calque_1" xmlns="http://www.w3.org/2000/svg" xmlns:xlink="http://www.w3.org/1999/xlink" x="0px" y="0px"
	 width="595.281px" height="841.891px" viewBox="0 0 595.281 841.891" enable-background="new 0 0 595.281 841.891"
	 xml:space="preserve">
<path fill="#008B8B" d="M573.656,151.906l-120.918-27.903c-13.137-3.023-26.625,3.837-31.973,16.161l-55.807,130.217
	c-4.883,11.395-1.629,24.765,8.021,32.555l70.457,57.668c-41.855,89.176-114.986,163.354-206.022,206.022l-57.668-70.456
	c-7.906-9.65-21.16-12.906-32.554-8.022L16.975,543.955c-12.44,5.464-19.3,18.951-16.277,32.089L28.602,696.96
	c2.906,12.557,14.068,21.626,27.206,21.626c297.756,0,539.473-241.252,539.473-539.474
	C595.281,166.091,586.328,154.813,573.656,151.906z"/>
</svg>
